<svg preserveAspectRatio="none" width="1761" height="682" overflow="visible" style="display: block;" viewBox="0 0 1761 682" fill="none" xmlns="http://www.w3.org/2000/svg">
<path id="Vector" d="M1749.33 210.642C1721.7 151.161 1647.92 108.649 1561.23 108.649C1556.79 108.649 1552.43 108.769 1548.15 109.008C1512.74 66.0766 1450.48 37.5953 1379.58 37.5953C1308.69 37.5953 1245.42 66.5563 1210.08 110.088C1202.38 109.188 1194.6 108.589 1186.58 108.589C1119.03 108.589 1061.36 140.788 1037.7 186.358C1033.89 186.118 1030.08 185.938 1026.19 185.938C990.854 185.938 958.402 194.812 931.864 209.682C902.835 187.257 862.678 173.406 818.319 173.406C800.108 173.406 782.675 175.865 766.41 180.182C745.242 157.277 714.19 140.248 678.002 132.633C658.624 57.0226 572.084 0 468.344 0C401.416 0 341.725 23.7444 302.502 60.8001C275.497 51.2663 245.457 45.9298 213.782 45.9298C95.7234 45.9298 0 119.681 0 210.642L0 682H1761V210.642H1749.33Z" fill="var(--fill-0, white)"/>
</svg>
