<svg preserveAspectRatio="none" width="100%" height="100%" overflow="visible" style="display: block;" viewBox="0 0 236.617 15.9193" fill="none" xmlns="http://www.w3.org/2000/svg">
<g id="Group 373756">
<g id="Group 373755">
<path id="Vector" d="M6.62309 6.78462C6.62309 7.07094 6.65436 7.30309 6.70906 7.47333C6.77158 7.64357 6.84974 7.82929 6.95915 8.03048C6.99823 8.09239 7.01386 8.1543 7.01386 8.20846C7.01386 8.28585 6.96697 8.36323 6.86537 8.44061L6.373 8.76562C6.30267 8.81205 6.23233 8.83526 6.16981 8.83526C6.09165 8.83526 6.0135 8.79657 5.93535 8.72693C5.82593 8.61085 5.73215 8.48704 5.654 8.36323C5.57584 8.23168 5.49769 8.08465 5.41172 7.90667C4.80213 8.61859 4.03623 8.97455 3.11402 8.97455C2.45753 8.97455 1.93391 8.78883 1.55096 8.4174C1.16801 8.04596 0.972626 7.55071 0.972626 6.93165C0.972626 6.2739 1.20708 5.73996 1.68382 5.33757C2.16055 4.93518 2.79359 4.73399 3.59857 4.73399C3.86429 4.73399 4.13783 4.7572 4.42699 4.79589C4.71616 4.83458 5.01314 4.89649 5.32575 4.96613V4.40124C5.32575 3.81313 5.20071 3.403 4.95843 3.16312C4.70834 2.92323 4.28632 2.80716 3.68454 2.80716C3.411 2.80716 3.12965 2.83811 2.84048 2.90776C2.55132 2.9774 2.26997 3.06252 1.99643 3.17086C1.87139 3.22502 1.7776 3.25598 1.7229 3.27145C1.66819 3.28693 1.62911 3.29467 1.59785 3.29467C1.48844 3.29467 1.43373 3.21729 1.43373 3.05478V2.67561C1.43373 2.5518 1.44936 2.45894 1.48844 2.40477C1.52751 2.3506 1.59785 2.29643 1.70726 2.24227C1.9808 2.10298 2.30904 1.9869 2.69199 1.89404C3.07494 1.79345 3.48134 1.74702 3.91118 1.74702C4.8412 1.74702 5.52114 1.95595 5.95879 2.37382C6.38863 2.79168 6.60746 3.42622 6.60746 4.27743V6.78462H6.62309ZM3.45008 7.96084C3.70798 7.96084 3.9737 7.91441 4.25506 7.82155C4.53641 7.72869 4.7865 7.55845 4.99751 7.3263C5.12255 7.17927 5.21634 7.01677 5.26323 6.83105C5.31012 6.64533 5.34138 6.42093 5.34138 6.15782V5.83282C5.11474 5.77865 4.87246 5.73222 4.62237 5.70127C4.37228 5.67031 4.13001 5.65484 3.88774 5.65484C3.36411 5.65484 2.98116 5.75544 2.72325 5.96437C2.46535 6.1733 2.3403 6.46736 2.3403 6.85427C2.3403 7.21797 2.43409 7.48881 2.62947 7.67452C2.81704 7.86798 3.09057 7.96084 3.45008 7.96084ZM9.72577 8.79657C9.5851 8.79657 9.49131 8.77336 9.42879 8.71919C9.36627 8.67276 9.31156 8.56442 9.26467 8.4174L7.42807 2.43572C7.38118 2.28096 7.35773 2.18036 7.35773 2.12619C7.35773 2.00238 7.42026 1.93274 7.5453 1.93274H8.3112C8.45969 1.93274 8.56129 1.95595 8.616 2.01012C8.67852 2.05655 8.72541 2.16488 8.7723 2.31191L10.0853 7.43464L11.3045 2.31191C11.3435 2.15714 11.3904 2.05655 11.453 2.01012C11.5155 1.96369 11.6249 1.93274 11.7656 1.93274H12.3908C12.5393 1.93274 12.6409 1.95595 12.7034 2.01012C12.7659 2.05655 12.8206 2.16488 12.8519 2.31191L14.0867 7.49654L15.4388 2.31191C15.4857 2.15714 15.5404 2.05655 15.5951 2.01012C15.6576 1.96369 15.7592 1.93274 15.8999 1.93274H16.6267C16.7517 1.93274 16.8221 1.99464 16.8221 2.12619C16.8221 2.16488 16.8143 2.20357 16.8064 2.25C16.7986 2.29643 16.783 2.35834 16.7517 2.44346L14.8682 8.42513C14.8214 8.5799 14.7666 8.6805 14.7041 8.72693C14.6416 8.77336 14.54 8.80431 14.4071 8.80431H13.735C13.5865 8.80431 13.4849 8.78109 13.4224 8.72693C13.3599 8.67276 13.3052 8.57216 13.2739 8.4174L12.0625 3.42622L10.859 8.40966C10.8199 8.56442 10.773 8.66502 10.7105 8.71919C10.648 8.77336 10.5386 8.79657 10.3979 8.79657H9.72577ZM19.7684 9.0055C19.362 9.0055 18.9557 8.95907 18.5649 8.86622C18.1741 8.77336 17.8693 8.67276 17.6661 8.55668C17.5411 8.48704 17.4551 8.40966 17.4239 8.34001C17.3926 8.27037 17.377 8.19299 17.377 8.12334V7.72869C17.377 7.56619 17.4395 7.48881 17.5567 7.48881C17.6036 7.48881 17.6505 7.49654 17.6974 7.51202C17.7443 7.5275 17.8146 7.55845 17.8928 7.5894C18.1585 7.70548 18.4477 7.79834 18.7525 7.86024C19.0651 7.92215 19.3699 7.9531 19.6825 7.9531C20.1748 7.9531 20.5578 7.86798 20.8235 7.69774C21.0892 7.5275 21.2299 7.27987 21.2299 6.9626C21.2299 6.74593 21.1596 6.56795 21.0189 6.42093C20.8782 6.2739 20.6125 6.14235 20.2295 6.01854L19.0963 5.67031C18.5258 5.49233 18.1038 5.22923 17.8459 4.88101C17.588 4.54053 17.4551 4.16135 17.4551 3.75896C17.4551 3.43396 17.5254 3.14764 17.6661 2.90002C17.8068 2.65239 17.9944 2.43572 18.2288 2.26548C18.4633 2.0875 18.729 1.95595 19.0416 1.86309C19.3542 1.77023 19.6825 1.73154 20.0263 1.73154C20.1983 1.73154 20.378 1.73928 20.55 1.76249C20.7297 1.78571 20.8938 1.81666 21.058 1.84761C21.2143 1.88631 21.3628 1.925 21.5034 1.97143C21.6441 2.01786 21.7535 2.06429 21.8317 2.11072C21.9411 2.17262 22.0193 2.23453 22.0661 2.30417C22.113 2.36608 22.1365 2.4512 22.1365 2.55953V2.92323C22.1365 3.08574 22.074 3.17086 21.9567 3.17086C21.8942 3.17086 21.7926 3.1399 21.6597 3.078C21.2143 2.8768 20.7141 2.77621 20.1592 2.77621C19.7137 2.77621 19.362 2.84585 19.1198 2.99288C18.8775 3.1399 18.7525 3.36431 18.7525 3.68158C18.7525 3.89825 18.8306 4.08397 18.9869 4.231C19.1432 4.37803 19.4324 4.52505 19.8466 4.6566L20.9564 5.00482C21.5191 5.1828 21.9255 5.43043 22.1677 5.7477C22.41 6.06497 22.5272 6.42866 22.5272 6.83105C22.5272 7.1638 22.4569 7.46559 22.324 7.72869C22.1834 7.99179 21.9958 8.22394 21.7535 8.40966C21.5113 8.60311 21.2221 8.7424 20.886 8.843C20.5343 8.95134 20.167 9.0055 19.7684 9.0055Z" fill="var(--fill-0, #1C1C1C)"/>
<g id="Group">
<path id="Vector_2" d="M21.2445 12.7668C18.6733 14.6472 14.9376 15.6454 11.7255 15.6454C7.22385 15.6454 3.1677 13.9972 0.104101 11.2579C-0.138173 11.0412 0.0806553 10.7471 0.369822 10.9174C3.68351 12.821 7.77092 13.974 11.999 13.974C14.8516 13.974 17.9855 13.3859 20.8694 12.1787C21.2992 11.9852 21.6665 12.4573 21.2445 12.7668Z" fill="var(--fill-0, #1C1C1C)"/>
<path id="Vector_3" d="M22.3161 11.5595C21.9878 11.1416 20.1434 11.3583 19.3072 11.4589C19.0571 11.4899 19.018 11.2732 19.2446 11.1107C20.7139 10.0892 23.1289 10.3833 23.4102 10.7238C23.6916 11.072 23.3321 13.4631 21.9566 14.6084C21.7455 14.7864 21.5423 14.6935 21.6361 14.4613C21.9487 13.6953 22.6443 11.9696 22.3161 11.5595Z" fill="var(--fill-0, #1C1C1C)"/>
</g>
</g>
<path id="Vector_4" d="M69.5666 12.5285C68.8445 12.5376 68.128 12.4023 67.4599 12.1307C66.7919 11.8591 66.1861 11.4568 65.6788 10.9478C65.1555 10.4605 64.7403 9.87077 64.4594 9.21611C64.1785 8.56144 64.0381 7.85611 64.0471 7.14487C64.0385 6.43368 64.179 5.72846 64.4599 5.07385C64.7408 4.41923 65.1558 3.82948 65.6788 3.34191C66.1836 2.8277 66.7883 2.41998 67.4564 2.14331C68.1246 1.86664 68.8424 1.72675 69.5666 1.73207C70.2567 1.72297 70.9417 1.84977 71.5818 2.1051C72.2219 2.36044 72.8044 2.73922 73.2954 3.21943L72.2469 4.27515C71.5288 3.58803 70.5651 3.21053 69.5666 3.22526C69.0487 3.21896 68.5351 3.31942 68.0584 3.52025C67.5818 3.72107 67.1526 4.01788 66.798 4.39181C66.4295 4.75378 66.1388 5.18584 65.9435 5.66198C65.7481 6.13813 65.652 6.6485 65.6611 7.16237C65.6568 7.67037 65.7552 8.1741 65.9504 8.6439C66.1456 9.1137 66.4338 9.54008 66.798 9.89793C67.5275 10.6177 68.5119 11.0272 69.5417 11.0392C70.5715 11.0512 71.5653 10.6647 72.3117 9.96209C72.7737 9.46105 73.0572 8.82387 73.1187 8.1481H69.5843V6.65492H74.5854C74.6346 6.95564 74.6543 7.26036 74.6444 7.56483C74.6755 8.195 74.5772 8.82488 74.3554 9.41638C74.1337 10.0079 73.7931 10.5487 73.3543 11.0062C72.8664 11.5091 72.2769 11.9047 71.6243 12.167C70.9717 12.4293 70.2705 12.5525 69.5666 12.5285ZM81.1948 11.5369C80.5236 12.174 79.6298 12.5296 78.7001 12.5296C77.7703 12.5296 76.8765 12.174 76.2054 11.5369C75.8713 11.2162 75.6082 10.8302 75.4328 10.4035C75.2574 9.97676 75.1734 9.51858 75.1863 9.05801C75.1738 8.5975 75.2579 8.13942 75.4333 7.71273C75.6087 7.28605 75.8716 6.90003 76.2054 6.57909C76.8772 5.94338 77.7708 5.58863 78.7001 5.58863C79.6294 5.58863 80.5229 5.94338 81.1948 6.57909C81.5285 6.90003 81.7914 7.28605 81.9668 7.71273C82.1422 8.13942 82.2264 8.5975 82.2138 9.05801C82.226 9.519 82.1411 9.97745 81.9646 10.4042C81.7882 10.831 81.524 11.2167 81.1889 11.5369H81.1948ZM77.3069 10.5629C77.4854 10.7516 77.7012 10.9021 77.9408 11.005C78.1805 11.1079 78.4389 11.161 78.7001 11.161C78.9612 11.161 79.2197 11.1079 79.4593 11.005C79.6989 10.9021 79.9147 10.7516 80.0932 10.5629C80.2879 10.3637 80.4403 10.1279 80.5414 9.86943C80.6426 9.61098 80.6905 9.33508 80.6823 9.05801C80.6909 8.78002 80.6433 8.50311 80.5421 8.24365C80.4409 7.98419 80.2883 7.74742 80.0932 7.54733C79.9123 7.36049 79.6951 7.21181 79.4547 7.11024C79.2143 7.00867 78.9556 6.95631 78.6942 6.95631C78.4328 6.95631 78.1741 7.00867 77.9337 7.11024C77.6932 7.21181 77.476 7.36049 77.2951 7.54733C77.1 7.74742 76.9474 7.98419 76.8462 8.24365C76.7451 8.50311 76.6974 8.78002 76.7061 9.05801C76.6986 9.33549 76.7474 9.61163 76.8496 9.8701C76.9518 10.1286 77.1053 10.3641 77.301 10.5629H77.3069ZM88.8644 11.5369C88.1932 12.174 87.2994 12.5296 86.3697 12.5296C85.44 12.5296 84.5462 12.174 83.875 11.5369C83.5409 11.2162 83.2778 10.8302 83.1024 10.4035C82.927 9.97676 82.843 9.51858 82.8559 9.05801C82.8434 8.5975 82.9275 8.13942 83.1029 7.71273C83.2783 7.28605 83.5412 6.90003 83.875 6.57909C84.5462 5.94205 85.44 5.58639 86.3697 5.58639C87.2994 5.58639 88.1932 5.94205 88.8644 6.57909C89.1981 6.90003 89.4611 7.28605 89.6365 7.71273C89.8119 8.13942 89.896 8.5975 89.8835 9.05801C89.8963 9.51858 89.8124 9.97676 89.637 10.4035C89.4615 10.8302 89.1984 11.2162 88.8644 11.5369ZM84.9765 10.5629C85.1551 10.7516 85.3708 10.9021 85.6105 11.005C85.8501 11.1079 86.1085 11.161 86.3697 11.161C86.6309 11.161 86.8893 11.1079 87.1289 11.005C87.3685 10.9021 87.5843 10.7516 87.7628 10.5629C87.9575 10.3637 88.1099 10.1279 88.2111 9.86943C88.3122 9.61098 88.3601 9.33508 88.3519 9.05801C88.3606 8.78002 88.3129 8.50311 88.2117 8.24365C88.1106 7.98419 87.9579 7.74742 87.7628 7.54733C87.5819 7.36049 87.3647 7.21181 87.1243 7.11024C86.8839 7.00867 86.6252 6.95631 86.3638 6.95631C86.1024 6.95631 85.8437 7.00867 85.6033 7.11024C85.3628 7.21181 85.1457 7.36049 84.9648 7.54733C84.7697 7.74742 84.617 7.98419 84.5158 8.24365C84.4147 8.50311 84.367 8.78002 84.3757 9.05801C84.3683 9.33549 84.4171 9.61163 84.5193 9.8701C84.6214 10.1286 84.7749 10.3641 84.9707 10.5629H84.9765ZM93.9068 15.6432C93.2007 15.6654 92.5083 15.4472 91.9452 15.0249C91.4452 14.6527 91.0514 14.1583 90.8024 13.5901L92.1455 13.036C92.2916 13.3755 92.5203 13.6741 92.8111 13.905C93.1224 14.1535 93.513 14.2838 93.9127 14.2725C94.1661 14.2878 94.4199 14.2488 94.6567 14.1582C94.8936 14.0676 95.1079 13.9275 95.2852 13.7476C95.6401 13.3237 95.8153 12.7801 95.7741 12.231V11.7294H95.7211C95.4966 11.9934 95.2131 12.202 94.8931 12.3387C94.5731 12.4754 94.2253 12.5364 93.8773 12.5168C93.435 12.5182 92.9973 12.4287 92.5917 12.254C92.1862 12.0793 91.8216 11.8232 91.5211 11.5019C91.1949 11.1832 90.9375 10.8023 90.7644 10.3822C90.5912 9.96215 90.506 9.51166 90.5138 9.05801C90.5056 8.60171 90.5907 8.14849 90.7637 7.72553C90.9368 7.30256 91.1944 6.91857 91.5211 6.59659C91.8209 6.27398 92.1852 6.01663 92.5908 5.84091C92.9964 5.66518 93.4345 5.57492 93.8773 5.57586C94.252 5.57521 94.6222 5.65689 94.9612 5.815C95.2544 5.9418 95.5159 6.13099 95.727 6.36911H95.78V5.815H97.2409V12.0269C97.2793 12.5183 97.2161 13.0123 97.055 13.4786C96.894 13.945 96.6385 14.3739 96.3043 14.7391C95.9859 15.0407 95.6097 15.2761 95.1979 15.4314C94.7861 15.5867 94.3471 15.6587 93.9068 15.6432ZM94.0128 11.1636C94.2643 11.1691 94.514 11.1197 94.7441 11.0189C94.9742 10.9181 95.179 10.7684 95.3441 10.5804C95.7075 10.168 95.8991 9.63421 95.8801 9.08718C95.902 8.53092 95.7105 7.98707 95.3441 7.56483C95.1793 7.37651 94.9745 7.22658 94.7443 7.12574C94.5142 7.02491 94.2644 6.97567 94.0128 6.98155C93.7544 6.9763 93.4978 7.0256 93.2601 7.12617C93.0225 7.22674 92.8091 7.37628 92.6344 7.56483C92.2447 7.9719 92.033 8.51478 92.0453 9.07551C92.0393 9.35055 92.0883 9.62406 92.1894 9.88031C92.2905 10.1366 92.4417 10.3705 92.6344 10.5687C92.8083 10.7591 93.0212 10.9106 93.2589 11.0132C93.4965 11.1158 93.7536 11.167 94.0128 11.1636ZM99.8386 2.12287V12.3185H98.3012V2.12287H99.8386ZM104.056 12.5285C103.596 12.5402 103.138 12.4577 102.711 12.2861C102.285 12.1144 101.898 11.8574 101.576 11.5311C101.25 11.2072 100.993 10.8209 100.822 10.3958C100.651 9.97066 100.569 9.51552 100.581 9.05801C100.563 8.59939 100.639 8.14198 100.804 7.71308C100.969 7.28418 101.22 6.89256 101.541 6.56159C101.844 6.24573 102.21 5.99593 102.615 5.82819C103.021 5.66046 103.458 5.57848 103.897 5.58752C104.302 5.5833 104.702 5.6607 105.075 5.815C105.411 5.94929 105.718 6.14744 105.977 6.39828C106.199 6.61092 106.397 6.84766 106.566 7.10404C106.702 7.32051 106.819 7.54894 106.913 7.78647L107.072 8.1831L102.36 10.1021C102.502 10.4263 102.741 10.7002 103.044 10.8876C103.346 11.075 103.7 11.1672 104.056 11.152C104.404 11.1529 104.745 11.0647 105.047 10.8961C105.35 10.7274 105.603 10.484 105.782 10.1896L106.96 10.977C106.66 11.4029 106.275 11.764 105.829 12.0386C105.3 12.3701 104.683 12.5404 104.056 12.5285ZM102.089 8.95302L105.223 7.66399C105.126 7.4367 104.953 7.24926 104.734 7.13321C104.488 6.99564 104.209 6.92519 103.927 6.92906C103.447 6.94135 102.992 7.14048 102.66 7.48317C102.462 7.6714 102.307 7.90076 102.209 8.15484C102.11 8.40893 102.069 8.68148 102.089 8.95302ZM115.125 12.5285C114.471 12.5397 113.822 12.4199 113.216 12.1764C112.61 11.9329 112.06 11.5706 111.599 11.1114C111.138 10.6522 110.775 10.1054 110.533 9.50399C110.29 8.90256 110.173 8.25884 110.189 7.61149C110.173 6.96414 110.29 6.32042 110.533 5.71899C110.775 5.11756 111.138 4.57082 111.599 4.11159C112.06 3.65235 112.61 3.29011 113.216 3.04659C113.822 2.80307 114.471 2.6833 115.125 2.69448C115.787 2.67399 116.445 2.80184 117.049 3.06849C117.654 3.33513 118.191 3.73367 118.618 4.23433L117.77 5.05091C117.456 4.66005 117.053 4.34805 116.595 4.14028C116.136 3.93251 115.635 3.83484 115.131 3.8552C114.646 3.84438 114.163 3.93077 113.713 4.10919C113.263 4.28761 112.853 4.55436 112.509 4.89343C112.152 5.24923 111.873 5.67436 111.689 6.14211C111.506 6.60987 111.422 7.11013 111.443 7.61149C111.422 8.11285 111.506 8.61312 111.689 9.08087C111.873 9.54862 112.152 9.97375 112.509 10.3296C112.853 10.6686 113.263 10.9354 113.713 11.1138C114.163 11.2922 114.646 11.3786 115.131 11.3678C115.694 11.374 116.251 11.2546 116.761 11.0183C117.271 10.782 117.72 10.4349 118.076 10.0029L118.924 10.8428C118.48 11.3687 117.923 11.7893 117.293 12.0735C116.614 12.384 115.873 12.5395 115.125 12.5285ZM121.204 12.3185H119.985V2.89862H121.204V12.3185ZM123.195 6.64909C123.834 6.02078 124.698 5.66816 125.598 5.66816C126.499 5.66816 127.363 6.02078 128.002 6.64909C128.314 6.97573 128.558 7.36034 128.72 7.78077C128.882 8.20119 128.958 8.64915 128.944 9.09884C128.958 9.54854 128.882 9.99649 128.72 10.4169C128.558 10.8374 128.314 11.222 128.002 11.5486C127.363 12.1769 126.499 12.5295 125.598 12.5295C124.698 12.5295 123.834 12.1769 123.195 11.5486C122.883 11.222 122.638 10.8374 122.477 10.4169C122.315 9.99649 122.239 9.54854 122.253 9.09884C122.239 8.64915 122.315 8.20119 122.477 7.78077C122.638 7.36034 122.883 6.97573 123.195 6.64909ZM124.102 10.7903C124.294 10.9914 124.526 11.1515 124.783 11.261C125.039 11.3704 125.316 11.4269 125.595 11.4269C125.875 11.4269 126.152 11.3704 126.408 11.261C126.665 11.1515 126.897 10.9914 127.089 10.7903C127.302 10.5639 127.467 10.2977 127.576 10.0073C127.684 9.71691 127.733 9.40809 127.719 9.09884C127.733 8.78959 127.684 8.48077 127.576 8.19037C127.467 7.89997 127.302 7.63379 127.089 7.40734C126.897 7.2063 126.665 7.04616 126.408 6.93672C126.152 6.82728 125.875 6.77083 125.595 6.77083C125.316 6.77083 125.039 6.82728 124.783 6.93672C124.526 7.04616 124.294 7.2063 124.102 7.40734C123.889 7.63379 123.724 7.89997 123.615 8.19037C123.507 8.48077 123.458 8.78959 123.472 9.09884C123.46 9.40753 123.51 9.71549 123.619 10.0049C123.728 10.2942 123.895 10.5592 124.108 10.7845L124.102 10.7903ZM135.701 12.3185H134.523V11.4261H134.487C134.278 11.7651 133.981 12.0428 133.627 12.231C133.26 12.4416 132.844 12.5523 132.42 12.5518C132.076 12.5752 131.73 12.5212 131.41 12.3939C131.09 12.2667 130.803 12.0694 130.57 11.8169C130.124 11.258 129.9 10.5568 129.94 9.84544V5.87916H131.159V9.62379C131.159 10.8253 131.695 11.4261 132.767 11.4261C133.006 11.4335 133.242 11.3844 133.457 11.2829C133.672 11.1815 133.86 11.0306 134.004 10.8428C134.32 10.4462 134.489 9.95396 134.482 9.44881V5.87916H135.701V12.3185ZM139.842 12.5285C139.428 12.5299 139.019 12.4425 138.643 12.2723C138.267 12.1021 137.932 11.8532 137.662 11.5428C137.052 10.8749 136.725 9.99949 136.749 9.09884C136.725 8.1982 137.052 7.32281 137.662 6.65492C137.932 6.34446 138.267 6.09557 138.643 5.92541C139.019 5.75524 139.428 5.66782 139.842 5.66918C140.305 5.66194 140.763 5.77025 141.173 5.98415C141.534 6.16369 141.839 6.43561 142.057 6.77157H142.11L142.057 5.87916V2.89862H143.276V12.3185H142.098V11.4261H142.045C141.827 11.7621 141.522 12.034 141.162 12.2135C140.755 12.4255 140.301 12.5338 139.842 12.5285ZM140.042 11.4261C140.318 11.4301 140.591 11.376 140.844 11.2674C141.097 11.1588 141.324 10.9981 141.509 10.7962C141.923 10.3292 142.135 9.71932 142.098 9.09884C142.135 8.47836 141.923 7.86852 141.509 7.40151C141.322 7.19844 141.095 7.03621 140.842 6.92519C140.588 6.81418 140.314 6.75684 140.036 6.75684C139.759 6.75684 139.485 6.81418 139.231 6.92519C138.978 7.03621 138.75 7.19844 138.564 7.40151C138.358 7.63121 138.2 7.89886 138.099 8.18913C137.998 8.47939 137.956 8.78656 137.975 9.09301C137.956 9.39947 137.998 9.70663 138.099 9.9969C138.2 10.2872 138.358 10.5548 138.564 10.7845C138.749 10.9901 138.977 11.1538 139.233 11.2645C139.488 11.3752 139.764 11.4303 140.042 11.4261Z" fill="var(--fill-0, #1C1C1C)"/>
<g id="layer1-1">
<path id="path21" d="M190.414 15.0692C193.08 14.6027 195.283 14.2167 195.308 14.2114L195.354 14.2018L192.837 11.2365C191.452 9.60558 190.319 8.26488 190.319 8.25715C190.319 8.24252 192.919 1.1538 192.933 1.12858C192.938 1.12015 194.707 4.14459 197.222 8.46003C199.576 12.5002 201.517 15.8314 201.535 15.8626L201.568 15.9193L193.566 15.9183L185.565 15.9173L190.414 15.0692ZM221.098 14.352C219.88 14.2747 219.172 13.588 218.984 12.3026C218.934 11.9607 218.934 11.9518 218.929 9.73196L218.924 7.58352H219.463H220.002L220.006 9.66161C220.01 11.5345 220.012 11.7541 220.03 11.8859C220.104 12.4206 220.25 12.7802 220.499 13.0383C220.698 13.2449 220.931 13.3658 221.254 13.43C221.406 13.4603 221.839 13.4603 221.977 13.4301C222.305 13.3588 222.567 13.2179 222.798 12.989C223.062 12.7281 223.256 12.358 223.351 11.9394L223.383 11.7983L223.386 9.70267L223.39 7.60699H223.94H224.49V10.9015V14.1959H223.946H223.401V13.6732C223.401 13.3181 223.397 13.1518 223.389 13.1546C223.382 13.1568 223.354 13.1992 223.327 13.2487C223.139 13.5877 222.826 13.8976 222.484 14.0844C222.073 14.3082 221.661 14.3878 221.098 14.352ZM233.461 14.3467C233.031 14.3147 232.578 14.1684 232.208 13.9417C231.428 13.4641 230.967 12.6767 230.831 11.5932C230.785 11.2182 230.779 10.7146 230.818 10.396C230.905 9.68405 231.188 8.9852 231.59 8.48627C231.693 8.35837 231.927 8.12671 232.056 8.02459C232.405 7.74884 232.813 7.55602 233.246 7.46218C233.499 7.40751 233.943 7.38184 234.211 7.40645C234.885 7.46827 235.502 7.78231 235.922 8.27659C236.348 8.77876 236.583 9.48047 236.613 10.3445C236.617 10.48 236.618 10.7174 236.615 10.8721L236.609 11.1535L234.25 11.1565L231.891 11.1594V11.2637C231.891 11.581 231.969 11.9425 232.103 12.25C232.219 12.5152 232.419 12.8048 232.583 12.9449C232.919 13.2322 233.33 13.4042 233.779 13.4456C233.946 13.461 234.371 13.4448 234.561 13.4159C235.103 13.3334 235.618 13.1229 236.034 12.814C236.083 12.7777 236.13 12.7437 236.138 12.7386C236.15 12.731 236.153 12.826 236.153 13.2251L236.152 13.7211L236.041 13.7893C235.57 14.0776 235.031 14.2627 234.46 14.332C234.29 14.3527 233.664 14.3619 233.461 14.3467ZM235.514 10.1641C235.514 9.63248 235.288 9.04197 234.967 8.7379C234.739 8.5209 234.463 8.38828 234.134 8.33793C233.979 8.3141 233.652 8.32328 233.488 8.35605C233.142 8.42532 232.855 8.57603 232.606 8.82041C232.343 9.07761 232.146 9.39 232.022 9.74593C231.977 9.87391 231.925 10.084 231.909 10.2009L231.901 10.2566H233.707H235.514V10.1641ZM203.512 14.1812C203.514 14.1732 204.316 12.0892 205.292 9.55027L207.067 4.93396L207.638 4.93393L208.208 4.93389L208.255 5.05406C208.4 5.4213 211.809 14.1859 211.809 14.1904C211.809 14.1934 211.536 14.1959 211.202 14.1958L210.596 14.1957L210.104 12.9003L209.613 11.6049L207.634 11.6049L205.656 11.6048L205.639 11.6488C205.629 11.673 205.419 12.2559 205.172 12.9441L204.723 14.1955L204.115 14.1957C203.633 14.1958 203.508 14.1928 203.512 14.1812ZM209.252 10.6163C209.252 10.6143 208.921 9.72661 208.517 8.64375C207.761 6.6179 207.718 6.49601 207.659 6.17077C207.631 6.01826 207.617 6.01402 207.6 6.15319C207.588 6.25266 207.537 6.47524 207.497 6.5987C207.477 6.65996 207.137 7.58531 206.74 8.65504C206.344 9.72476 206.019 10.6045 206.019 10.61C206.019 10.6155 206.747 10.6201 207.636 10.6201C208.524 10.6201 209.252 10.6184 209.252 10.6163ZM212.176 14.0272V13.8585L214.148 11.1753L216.119 8.49214L214.334 8.48627L212.549 8.48041L212.546 8.03197L212.543 7.58352H215.124H217.706V7.73499V7.88645L215.734 10.5842C214.65 12.068 213.763 13.2845 213.763 13.2876C213.763 13.2906 214.639 13.2931 215.711 13.2931H217.658V13.7445V14.1959H214.917H212.176V14.0272ZM226.641 14.1881C226.637 14.1838 226.633 12.696 226.633 10.8819V7.58352H227.172H227.711V8.26352C227.711 8.63751 227.716 8.94351 227.721 8.94351C227.727 8.94351 227.753 8.88229 227.779 8.80747C227.901 8.4646 228.111 8.14422 228.381 7.8896C228.625 7.66022 228.904 7.52304 229.232 7.47055C229.325 7.4558 229.403 7.45299 229.588 7.45775C229.82 7.46374 229.941 7.48053 230.082 7.52619L230.126 7.54056V8.09427V8.64798L229.999 8.58489C229.774 8.47345 229.552 8.42935 229.286 8.44308C229.112 8.45201 228.998 8.47408 228.859 8.52565C228.574 8.63175 228.342 8.81902 228.181 9.07465C227.946 9.44471 227.779 9.92039 227.73 10.3576C227.721 10.436 227.716 11.075 227.714 12.3347L227.711 14.1959H227.18C226.888 14.1959 226.646 14.1924 226.641 14.1881ZM180.811 14.1649C180.811 14.1607 181.997 12.1216 183.447 9.63353L186.084 5.10974L189.156 2.55683C190.846 1.15272 192.233 0.00219567 192.238 9.73889e-05C192.244 -0.00200048 192.222 0.0533954 192.189 0.1232C192.156 0.193005 190.655 3.38132 188.853 7.20835L185.576 14.1666L183.194 14.1695C181.883 14.1712 180.811 14.1691 180.811 14.1649Z" fill="var(--fill-0, #1C1C1C)"/>
</g>
</g>
</svg>
